<svg width="539" height="397" viewBox="0 0 539 397" fill="none" xmlns="http://www.w3.org/2000/svg">
<path d="M260.247 30.6787L345.709 85.536V254.15L198.461 343.654" stroke="#439588" stroke-width="0.5"/>
<path d="M303.555 3.53809L345.131 30.1006" stroke="#B6B6B6" stroke-opacity="0.33" stroke-width="0.5"/>
<path d="M476.21 30.6787L390.748 85.536V254.15L537.996 343.654" stroke="#B6B6B6" stroke-opacity="0.33" stroke-width="0.5"/>
<path d="M198.466 55.623V55.623L198.391 55.7531L198.466 55.623ZM198.466 55.623L198.515 55.5362L198.466 55.623V55.623ZM198.465 166.087L293.247 110.081L198.465 55.7957L103.109 110.081L198.465 166.087ZM198.389 166.132L198.39 166.132L198.389 166.132Z" stroke="#439588" stroke-width="0.5"/>
<path d="M293.164 221.638V110.541C293.164 110.463 293.08 110.415 293.013 110.454L198.609 166.291C198.544 166.33 198.544 166.425 198.61 166.463L293.014 221.724C293.08 221.763 293.164 221.715 293.164 221.638Z" fill="#131313"/>
<path d="M293.164 221.638V110.541C293.164 110.463 293.08 110.415 293.013 110.454L198.609 166.291C198.544 166.33 198.544 166.425 198.61 166.463L293.014 221.724C293.08 221.763 293.164 221.715 293.164 221.638Z" fill="url(#paint0_linear_530_39335)" fill-opacity="0.13"/>
<path d="M293.164 221.638V110.541C293.164 110.463 293.08 110.415 293.013 110.454L198.609 166.291C198.544 166.33 198.544 166.425 198.61 166.463L293.014 221.724C293.08 221.763 293.164 221.715 293.164 221.638Z" stroke="#B6B6B6" stroke-opacity="0.33" stroke-width="0.5"/>
<path d="M103.18 221.061V110.539C103.18 110.462 103.263 110.414 103.33 110.453L198.31 165.714C198.376 165.752 198.376 165.848 198.31 165.886L103.33 221.147C103.263 221.186 103.18 221.138 103.18 221.061Z" fill="#131313"/>
<path d="M103.18 221.061V110.539C103.18 110.462 103.263 110.414 103.33 110.453L198.31 165.714C198.376 165.752 198.376 165.848 198.31 165.886L103.33 221.147C103.263 221.186 103.18 221.138 103.18 221.061Z" fill="url(#paint1_linear_530_39335)" fill-opacity="0.13"/>
<path d="M103.18 221.061V110.539C103.18 110.462 103.263 110.414 103.33 110.453L198.31 165.714C198.376 165.752 198.376 165.848 198.31 165.886L103.33 221.147C103.263 221.186 103.18 221.138 103.18 221.061Z" stroke="#B6B6B6" stroke-opacity="0.33" stroke-width="0.5"/>
<path d="M198.457 277.072V165.975C198.457 165.898 198.541 165.85 198.608 165.889L293.012 221.725C293.077 221.764 293.077 221.859 293.011 221.898L198.608 277.159C198.541 277.198 198.457 277.15 198.457 277.072Z" fill="#131313"/>
<path d="M198.457 277.072V165.975C198.457 165.898 198.541 165.85 198.608 165.889L293.012 221.725C293.077 221.764 293.077 221.859 293.011 221.898L198.608 277.159C198.541 277.198 198.457 277.15 198.457 277.072Z" fill="url(#paint2_linear_530_39335)" fill-opacity="0.13"/>
<path d="M198.457 277.072V165.975C198.457 165.898 198.541 165.85 198.608 165.889L293.012 221.725C293.077 221.764 293.077 221.859 293.011 221.898L198.608 277.159C198.541 277.198 198.457 277.15 198.457 277.072Z" stroke="#B6B6B6" stroke-opacity="0.33" stroke-width="0.5"/>
<path d="M198.457 277.073V165.975C198.457 165.897 198.373 165.849 198.306 165.888L103.326 221.725C103.26 221.764 103.26 221.859 103.326 221.898L198.307 277.159C198.373 277.198 198.457 277.15 198.457 277.073Z" fill="#131313"/>
<path d="M198.457 277.073V165.975C198.457 165.897 198.373 165.849 198.306 165.888L103.326 221.725C103.26 221.764 103.26 221.859 103.326 221.898L198.307 277.159C198.373 277.198 198.457 277.15 198.457 277.073Z" fill="url(#paint3_linear_530_39335)" fill-opacity="0.13"/>
<path d="M198.457 277.073V165.975C198.457 165.897 198.373 165.849 198.306 165.888L103.326 221.725C103.26 221.764 103.26 221.859 103.326 221.898L198.307 277.159C198.373 277.198 198.457 277.15 198.457 277.073Z" stroke="#439588" stroke-width="0.5"/>
<path d="M440.989 177.349C441.451 179.196 441.182 202.756 440.989 214.305L485.455 240.29" stroke="#48D9C2" stroke-width="0.5"/>
<path d="M59.877 37.0303V198.137L2.7099 229.897" stroke="#439588" stroke-width="0.5"/>
<path d="M64.4961 255.881L155.732 307.851V396.2" stroke="#B6B6B6" stroke-opacity="0.33" stroke-width="0.5"/>
<path d="M47.1691 301.5L107.801 335.569V367.329" stroke="#B6B6B6" stroke-opacity="0.33" stroke-width="0.5"/>
<rect width="4.85779" height="4.85779" transform="matrix(-1 0 0 1 263.535 28.7324)" fill="#318074"/>
<rect width="4.85779" height="4.85779" transform="matrix(-1 0 0 1 306.039 0.799805)" fill="#318074"/>
<rect width="4.85779" height="4.85779" transform="matrix(-1 0 0 1 61.9355 33.5898)" fill="#318074"/>
<rect width="4.85779" height="4.85779" transform="matrix(-1 0 0 1 66.793 253.404)" fill="#318074"/>
<rect width="4.85779" height="4.85779" transform="matrix(-1 0 0 1 4.85742 227.901)" fill="#318074"/>
<rect width="4.85779" height="4.85779" transform="matrix(-1 0 0 1 110.514 365.134)" fill="#318074"/>
<rect width="3.64334" height="3.64334" transform="matrix(-1 0 0 1 200.383 340.845)" fill="#318074"/>
<path d="M390.176 363.638L431.752 390.2" stroke="#B6B6B6" stroke-opacity="0.33" stroke-width="0.5"/>
<rect width="3.64334" height="3.64334" transform="matrix(-1 0 0 1 392.264 361.49)" fill="#318074"/>
<rect width="4.85779" height="4.85779" transform="matrix(-1 0 0 1 486.992 238.225)" fill="#318074"/>
<rect width="4.85779" height="4.85779" transform="matrix(-1 0 0 1 478.492 28.125)" fill="#318074"/>
<defs>
<linearGradient id="paint0_linear_530_39335" x1="253.194" y1="221.812" x2="253.194" y2="110.365" gradientUnits="userSpaceOnUse">
<stop stop-color="#1CEDCC"/>
<stop offset="1" stop-color="#343434" stop-opacity="0"/>
</linearGradient>
<linearGradient id="paint1_linear_530_39335" x1="143.394" y1="221.235" x2="143.394" y2="110.365" gradientUnits="userSpaceOnUse">
<stop stop-color="#1CEDCC"/>
<stop offset="1" stop-color="#343434" stop-opacity="0"/>
</linearGradient>
<linearGradient id="paint2_linear_530_39335" x1="238.428" y1="277.247" x2="238.428" y2="165.8" gradientUnits="userSpaceOnUse">
<stop stop-color="#1CEDCC"/>
<stop offset="1" stop-color="#343434" stop-opacity="0"/>
</linearGradient>
<linearGradient id="paint3_linear_530_39335" x1="158.243" y1="277.247" x2="158.243" y2="165.8" gradientUnits="userSpaceOnUse">
<stop stop-color="#1CEDCC"/>
<stop offset="1" stop-color="#343434" stop-opacity="0"/>
</linearGradient>
</defs>
</svg>
