<svg width="730" height="416" viewBox="0 0 730 416" fill="none" xmlns="http://www.w3.org/2000/svg">
<path d="M451.249 39.875L536.711 94.7323V263.346L389.462 352.85" stroke="#439588" stroke-width="0.5"/>
<path d="M494.557 12.7344L536.133 39.2968" stroke="#B6B6B6" stroke-opacity="0.33" stroke-width="0.5"/>
<path d="M667.212 39.875L581.75 94.7323V263.346L728.998 352.85" stroke="#B6B6B6" stroke-opacity="0.33" stroke-width="0.5"/>
<path d="M389.471 64.8183V64.8183L389.397 64.9484L389.471 64.8183ZM389.471 64.8183L389.521 64.7315L389.471 64.8183V64.8183ZM389.471 175.282L484.253 119.277L389.471 64.991L294.115 119.277L389.471 175.282ZM389.395 175.327L389.396 175.327L389.395 175.327Z" stroke="#439588" stroke-width="0.5"/>
<path d="M484.172 230.835V119.738C484.172 119.66 484.088 119.612 484.021 119.652L389.617 175.488C389.552 175.527 389.552 175.622 389.618 175.661L484.021 230.921C484.088 230.96 484.172 230.912 484.172 230.835Z" fill="#131313"/>
<path d="M484.172 230.835V119.738C484.172 119.66 484.088 119.612 484.021 119.652L389.617 175.488C389.552 175.527 389.552 175.622 389.618 175.661L484.021 230.921C484.088 230.96 484.172 230.912 484.172 230.835Z" fill="url(#paint0_linear_1081_59370)" fill-opacity="0.13"/>
<path d="M484.172 230.835V119.738C484.172 119.66 484.088 119.612 484.021 119.652L389.617 175.488C389.552 175.527 389.552 175.622 389.618 175.661L484.021 230.921C484.088 230.96 484.172 230.912 484.172 230.835Z" stroke="#B6B6B6" stroke-opacity="0.33" stroke-width="0.5"/>
<path d="M294.188 230.258V119.736C294.188 119.659 294.271 119.611 294.338 119.65L389.317 174.911C389.384 174.949 389.384 175.045 389.317 175.084L294.338 230.344C294.271 230.383 294.188 230.335 294.188 230.258Z" fill="#131313"/>
<path d="M294.188 230.258V119.736C294.188 119.659 294.271 119.611 294.338 119.65L389.317 174.911C389.384 174.949 389.384 175.045 389.317 175.084L294.338 230.344C294.271 230.383 294.188 230.335 294.188 230.258Z" fill="url(#paint1_linear_1081_59370)" fill-opacity="0.13"/>
<path d="M294.188 230.258V119.736C294.188 119.659 294.271 119.611 294.338 119.65L389.317 174.911C389.384 174.949 389.384 175.045 389.317 175.084L294.338 230.344C294.271 230.383 294.188 230.335 294.188 230.258Z" stroke="#B6B6B6" stroke-opacity="0.33" stroke-width="0.5"/>
<path d="M389.461 286.272V175.175C389.461 175.098 389.545 175.05 389.612 175.089L484.016 230.926C484.081 230.964 484.081 231.059 484.015 231.098L389.611 286.359C389.545 286.398 389.461 286.35 389.461 286.272Z" fill="#131313"/>
<path d="M389.461 286.272V175.175C389.461 175.098 389.545 175.05 389.612 175.089L484.016 230.926C484.081 230.964 484.081 231.059 484.015 231.098L389.611 286.359C389.545 286.398 389.461 286.35 389.461 286.272Z" fill="url(#paint2_linear_1081_59370)" fill-opacity="0.13"/>
<path d="M389.461 286.272V175.175C389.461 175.098 389.545 175.05 389.612 175.089L484.016 230.926C484.081 230.964 484.081 231.059 484.015 231.098L389.611 286.359C389.545 286.398 389.461 286.35 389.461 286.272Z" stroke="#B6B6B6" stroke-opacity="0.33" stroke-width="0.5"/>
<path d="M389.461 286.273V175.175C389.461 175.097 389.377 175.049 389.31 175.089L294.33 230.926C294.264 230.964 294.264 231.06 294.33 231.098L389.311 286.359C389.377 286.398 389.461 286.35 389.461 286.273Z" fill="#131313"/>
<path d="M389.461 286.273V175.175C389.461 175.097 389.377 175.049 389.31 175.089L294.33 230.926C294.264 230.964 294.264 231.06 294.33 231.098L389.311 286.359C389.377 286.398 389.461 286.35 389.461 286.273Z" fill="url(#paint3_linear_1081_59370)" fill-opacity="0.13"/>
<path d="M389.461 286.273V175.175C389.461 175.097 389.377 175.049 389.31 175.089L294.33 230.926C294.264 230.964 294.264 231.06 294.33 231.098L389.311 286.359C389.377 286.398 389.461 286.35 389.461 286.273Z" stroke="#439588" stroke-width="0.5"/>
<path d="M631.995 186.547C632.457 188.395 632.188 211.954 631.995 223.503L676.461 249.488" stroke="#48D9C2" stroke-width="0.5"/>
<path d="M250.883 46.2344V207.342L193.716 239.101" stroke="#439588" stroke-width="0.5"/>
<path d="M255.498 265.078L346.734 317.048V405.397" stroke="#B6B6B6" stroke-opacity="0.33" stroke-width="0.5"/>
<path d="M238.173 310.703L298.805 344.772V376.532" stroke="#B6B6B6" stroke-opacity="0.33" stroke-width="0.5"/>
<rect width="4.85779" height="4.85779" transform="matrix(-1 0 0 1 454.539 37.9375)" fill="#318074"/>
<rect width="4.85779" height="4.85779" transform="matrix(-1 0 0 1 497.047 10)" fill="#318074"/>
<rect width="4.85779" height="4.85779" transform="matrix(-1 0 0 1 252.938 42.7891)" fill="#318074"/>
<rect width="4.85779" height="4.85779" transform="matrix(-1 0 0 1 257.797 262.609)" fill="#318074"/>
<rect width="4.85779" height="4.85779" transform="matrix(-1 0 0 1 195.859 237.102)" fill="#318074"/>
<rect width="4.85779" height="4.85779" transform="matrix(-1 0 0 1 301.516 374.336)" fill="#318074"/>
<rect width="3.64334" height="3.64334" transform="matrix(-1 0 0 1 391.391 350.047)" fill="#318074"/>
<path d="M581.182 372.836L622.758 399.398" stroke="#B6B6B6" stroke-opacity="0.33" stroke-width="0.5"/>
<rect width="3.64334" height="3.64334" transform="matrix(-1 0 0 1 583.266 370.688)" fill="#318074"/>
<rect width="4.85779" height="4.85779" transform="matrix(-1 0 0 1 678 247.422)" fill="#318074"/>
<rect width="4.85779" height="4.85779" transform="matrix(-1 0 0 1 669.492 37.3281)" fill="#318074"/>
<path d="M62.7882 399.398L148.25 344.541V175.927L1.00155 86.4233" stroke="#B6B6B6" stroke-opacity="0.33" stroke-width="0.5"/>
<path d="M98.0048 252.727C97.5428 250.879 97.8123 227.319 98.0048 215.77L53.5391 189.785" stroke="#48D9C2" stroke-width="0.5"/>
<path d="M148.818 66.4375L107.242 39.875" stroke="#B6B6B6" stroke-opacity="0.33" stroke-width="0.5"/>
<rect width="3.64334" height="3.64334" transform="matrix(1 0 0 -1 146.734 68.5859)" fill="#318074"/>
<defs>
<linearGradient id="paint0_linear_1081_59370" x1="444.201" y1="231.009" x2="444.201" y2="119.563" gradientUnits="userSpaceOnUse">
<stop stop-color="#1CEDCC"/>
<stop offset="1" stop-color="#343434" stop-opacity="0"/>
</linearGradient>
<linearGradient id="paint1_linear_1081_59370" x1="334.402" y1="230.432" x2="334.402" y2="119.563" gradientUnits="userSpaceOnUse">
<stop stop-color="#1CEDCC"/>
<stop offset="1" stop-color="#343434" stop-opacity="0"/>
</linearGradient>
<linearGradient id="paint2_linear_1081_59370" x1="429.431" y1="286.447" x2="429.431" y2="175" gradientUnits="userSpaceOnUse">
<stop stop-color="#1CEDCC"/>
<stop offset="1" stop-color="#343434" stop-opacity="0"/>
</linearGradient>
<linearGradient id="paint3_linear_1081_59370" x1="349.247" y1="286.447" x2="349.247" y2="175" gradientUnits="userSpaceOnUse">
<stop stop-color="#1CEDCC"/>
<stop offset="1" stop-color="#343434" stop-opacity="0"/>
</linearGradient>
</defs>
</svg>
