<svg width="923" height="372" viewBox="0 0 923 372" fill="none" xmlns="http://www.w3.org/2000/svg">
<path d="M304 343.5H448.5L488.5 303.5H598L634.5 267V116.5L672 79" stroke="url(#paint0_linear_202_2782)"/>
<path d="M488.5 303.5L430 245H337" stroke="url(#paint1_linear_202_2782)"/>
<path d="M393.5 209.5H469L519 259.5H565L593 231.5V180L558 145V82" stroke="url(#paint2_linear_202_2782)"/>
<rect x="306" y="345" width="4" height="4" transform="rotate(180 306 345)" fill="#318074"/>
<rect x="339" y="247" width="4" height="4" transform="rotate(180 339 247)" fill="#318074"/>
<rect x="395" y="212" width="4" height="4" transform="rotate(180 395 212)" fill="#318074"/>
<path d="M679 188V37.5978L715.575 0.99999H923" stroke="url(#paint3_linear_202_2782)"/>
<rect x="681" y="190" width="4" height="4" transform="rotate(180 681 190)" fill="#318074"/>
<path d="M0 371H67.5L95 343.5H214" stroke="url(#paint4_linear_202_2782)"/>
<rect x="217" y="345" width="4" height="4" transform="rotate(180 217 345)" fill="#318074"/>
<defs>
<linearGradient id="paint0_linear_202_2782" x1="304.042" y1="343.852" x2="579.434" y2="28.4974" gradientUnits="userSpaceOnUse">
<stop stop-color="#294E48"/>
<stop offset="1" stop-color="#727272" stop-opacity="0"/>
</linearGradient>
<linearGradient id="paint1_linear_202_2782" x1="337.017" y1="303.578" x2="384.29" y2="202.818" gradientUnits="userSpaceOnUse">
<stop stop-color="#294E48"/>
<stop offset="1" stop-color="#727272" stop-opacity="0"/>
</linearGradient>
<linearGradient id="paint2_linear_202_2782" x1="393.523" y1="259.736" x2="579.467" y2="87.7265" gradientUnits="userSpaceOnUse">
<stop stop-color="#294E48"/>
<stop offset="1" stop-color="#727272" stop-opacity="0"/>
</linearGradient>
<linearGradient id="paint3_linear_202_2782" x1="679.028" y1="188.249" x2="875.02" y2="-22.232" gradientUnits="userSpaceOnUse">
<stop stop-color="#294E48"/>
<stop offset="1" stop-color="#727272" stop-opacity="0"/>
</linearGradient>
<linearGradient id="paint4_linear_202_2782" x1="213.975" y1="343.463" x2="205.39" y2="409.152" gradientUnits="userSpaceOnUse">
<stop stop-color="#294E48"/>
<stop offset="1" stop-color="#727272" stop-opacity="0"/>
</linearGradient>
</defs>
</svg>
