<svg width="444" height="327" viewBox="0 0 444 327" fill="none" xmlns="http://www.w3.org/2000/svg">
<path d="M229.707 25.1025L159.336 70.2731V209.113L280.583 282.813" stroke="#439588" stroke-width="0.5"/>
<path d="M194.043 2.75488L159.809 24.627" stroke="#B6B6B6" stroke-opacity="0.33" stroke-width="0.5"/>
<path d="M51.8751 25.1025L122.246 70.2731V209.113L0.998757 282.813" stroke="#B6B6B6" stroke-opacity="0.33" stroke-width="0.5"/>
<path d="M280.583 45.663V45.663L280.658 45.7932L280.583 45.663ZM280.583 45.663L280.534 45.5762L280.583 45.663V45.663ZM280.583 136.55L202.626 90.4853L280.583 45.8357L359.013 90.4853L280.583 136.55ZM280.66 136.595L280.659 136.594L280.66 136.595Z" stroke="#439588" stroke-width="0.5"/>
<path d="M202.602 182.312V90.8941C202.602 90.8166 202.686 90.7686 202.752 90.808L280.434 136.754C280.5 136.793 280.499 136.888 280.434 136.926L202.752 182.398C202.685 182.437 202.602 182.389 202.602 182.312Z" fill="#131313"/>
<path d="M202.602 182.312V90.8941C202.602 90.8166 202.686 90.7686 202.752 90.808L280.434 136.754C280.5 136.793 280.499 136.888 280.434 136.926L202.752 182.398C202.685 182.437 202.602 182.389 202.602 182.312Z" fill="url(#paint0_linear_202_1352)" fill-opacity="0.13"/>
<path d="M202.602 182.312V90.8941C202.602 90.8166 202.686 90.7686 202.752 90.808L280.434 136.754C280.5 136.793 280.499 136.888 280.434 136.926L202.752 182.398C202.685 182.437 202.602 182.389 202.602 182.312Z" stroke="#B6B6B6" stroke-opacity="0.33" stroke-width="0.5"/>
<path d="M359.035 181.837V90.8926C359.035 90.8155 358.952 90.7674 358.885 90.8062L280.73 136.278C280.663 136.317 280.663 136.413 280.73 136.451L358.885 181.923C358.952 181.962 359.035 181.914 359.035 181.837Z" fill="#131313"/>
<path d="M359.035 181.837V90.8926C359.035 90.8155 358.952 90.7674 358.885 90.8062L280.73 136.278C280.663 136.317 280.663 136.413 280.73 136.451L358.885 181.923C358.952 181.962 359.035 181.914 359.035 181.837Z" fill="url(#paint1_linear_202_1352)" fill-opacity="0.13"/>
<path d="M359.035 181.837V90.8926C359.035 90.8155 358.952 90.7674 358.885 90.8062L280.73 136.278C280.663 136.317 280.663 136.413 280.73 136.451L358.885 181.923C358.952 181.962 359.035 181.914 359.035 181.837Z" stroke="#B6B6B6" stroke-opacity="0.33" stroke-width="0.5"/>
<path d="M280.582 227.957V136.54C280.582 136.462 280.498 136.414 280.431 136.454L202.75 182.399C202.684 182.438 202.684 182.533 202.75 182.572L280.432 228.044C280.498 228.083 280.582 228.035 280.582 227.957Z" fill="#131313"/>
<path d="M280.582 227.957V136.54C280.582 136.462 280.498 136.414 280.431 136.454L202.75 182.399C202.684 182.438 202.684 182.533 202.75 182.572L280.432 228.044C280.498 228.083 280.582 228.035 280.582 227.957Z" fill="url(#paint2_linear_202_1352)" fill-opacity="0.13"/>
<path d="M280.582 227.957V136.54C280.582 136.462 280.498 136.414 280.431 136.454L202.75 182.399C202.684 182.438 202.684 182.533 202.75 182.572L280.432 228.044C280.498 228.083 280.582 228.035 280.582 227.957Z" stroke="#B6B6B6" stroke-opacity="0.33" stroke-width="0.5"/>
<path d="M280.582 227.958V136.539C280.582 136.462 280.666 136.414 280.733 136.453L358.889 182.399C358.955 182.438 358.955 182.533 358.888 182.572L280.732 228.044C280.666 228.083 280.582 228.035 280.582 227.958Z" fill="#131313"/>
<path d="M280.582 227.958V136.539C280.582 136.462 280.666 136.414 280.733 136.453L358.889 182.399C358.955 182.438 358.955 182.533 358.888 182.572L280.732 228.044C280.666 228.083 280.582 228.035 280.582 227.958Z" fill="url(#paint3_linear_202_1352)" fill-opacity="0.13"/>
<path d="M280.582 227.958V136.539C280.582 136.462 280.666 136.414 280.733 136.453L358.889 182.399C358.955 182.438 358.955 182.533 358.888 182.572L280.732 228.044C280.666 228.083 280.582 228.035 280.582 227.958Z" stroke="#439588" stroke-width="0.5"/>
<path d="M80.8835 145.874C80.5031 147.396 80.725 166.795 80.8835 176.305L44.2695 197.701" stroke="#48D9C2" stroke-width="0.5"/>
<path d="M394.695 30.333V162.992L441.768 189.143" stroke="#439588" stroke-width="0.5"/>
<path d="M390.891 210.539L315.766 253.332V326.081" stroke="#B6B6B6" stroke-opacity="0.33" stroke-width="0.5"/>
<path d="M405.16 248.103L355.234 276.156V302.307" stroke="#B6B6B6" stroke-opacity="0.33" stroke-width="0.5"/>
<rect x="227" y="23.5" width="4" height="4" fill="#318074"/>
<rect x="192" y="0.5" width="4" height="4" fill="#318074"/>
<rect x="393" y="27.5" width="4" height="4" fill="#318074"/>
<rect x="389" y="208.5" width="4" height="4" fill="#318074"/>
<rect x="440" y="187.5" width="4" height="4" fill="#318074"/>
<rect x="353" y="300.5" width="4" height="4" fill="#318074"/>
<rect x="279" y="280.5" width="3" height="3" fill="#318074"/>
<path d="M122.719 299.269L88.4844 321.141" stroke="#B6B6B6" stroke-opacity="0.33" stroke-width="0.5"/>
<rect x="121" y="297.5" width="3" height="3" fill="#318074"/>
<rect x="43" y="196" width="4" height="4" fill="#318074"/>
<rect x="50" y="23" width="4" height="4" fill="#318074"/>
<defs>
<linearGradient id="paint0_linear_202_1352" x1="235.514" y1="182.486" x2="235.514" y2="90.7188" gradientUnits="userSpaceOnUse">
<stop stop-color="#1CEDCC"/>
<stop offset="1" stop-color="#343434" stop-opacity="0"/>
</linearGradient>
<linearGradient id="paint1_linear_202_1352" x1="325.922" y1="182.011" x2="325.922" y2="90.7188" gradientUnits="userSpaceOnUse">
<stop stop-color="#1CEDCC"/>
<stop offset="1" stop-color="#343434" stop-opacity="0"/>
</linearGradient>
<linearGradient id="paint2_linear_202_1352" x1="247.67" y1="228.132" x2="247.67" y2="136.364" gradientUnits="userSpaceOnUse">
<stop stop-color="#1CEDCC"/>
<stop offset="1" stop-color="#343434" stop-opacity="0"/>
</linearGradient>
<linearGradient id="paint3_linear_202_1352" x1="313.695" y1="228.132" x2="313.695" y2="136.364" gradientUnits="userSpaceOnUse">
<stop stop-color="#1CEDCC"/>
<stop offset="1" stop-color="#343434" stop-opacity="0"/>
</linearGradient>
</defs>
</svg>
