<svg width="539" height="396" viewBox="0 0 539 396" fill="none" xmlns="http://www.w3.org/2000/svg">
<path d="M260.249 29.875L345.711 84.7323V253.346L198.462 342.85" stroke="#439588" stroke-width="0.5"/>
<path d="M303.557 2.73438L345.133 29.2968" stroke="#B6B6B6" stroke-opacity="0.33" stroke-width="0.5"/>
<path d="M476.212 29.875L390.75 84.7323V253.346L537.998 342.85" stroke="#B6B6B6" stroke-opacity="0.33" stroke-width="0.5"/>
<path d="M198.471 54.8183V54.8183L198.397 54.9484L198.471 54.8183ZM198.471 54.8183L198.521 54.7315L198.471 54.8183V54.8183ZM198.471 165.282L293.253 109.277L198.471 54.991L103.115 109.277L198.471 165.282ZM198.395 165.327L198.396 165.327L198.395 165.327Z" stroke="#439588" stroke-width="0.5"/>
<path d="M293.172 220.835V109.738C293.172 109.66 293.088 109.612 293.021 109.652L198.617 165.488C198.552 165.527 198.552 165.622 198.618 165.661L293.021 220.921C293.088 220.96 293.172 220.912 293.172 220.835Z" fill="#131313"/>
<path d="M293.172 220.835V109.738C293.172 109.66 293.088 109.612 293.021 109.652L198.617 165.488C198.552 165.527 198.552 165.622 198.618 165.661L293.021 220.921C293.088 220.96 293.172 220.912 293.172 220.835Z" fill="url(#paint0_linear_536_103123)" fill-opacity="0.13"/>
<path d="M293.172 220.835V109.738C293.172 109.66 293.088 109.612 293.021 109.652L198.617 165.488C198.552 165.527 198.552 165.622 198.618 165.661L293.021 220.921C293.088 220.96 293.172 220.912 293.172 220.835Z" stroke="#B6B6B6" stroke-opacity="0.33" stroke-width="0.5"/>
<path d="M103.188 220.258V109.736C103.188 109.659 103.271 109.611 103.338 109.65L198.317 164.911C198.384 164.949 198.384 165.045 198.317 165.084L103.338 220.344C103.271 220.383 103.188 220.335 103.188 220.258Z" fill="#131313"/>
<path d="M103.188 220.258V109.736C103.188 109.659 103.271 109.611 103.338 109.65L198.317 164.911C198.384 164.949 198.384 165.045 198.317 165.084L103.338 220.344C103.271 220.383 103.188 220.335 103.188 220.258Z" fill="url(#paint1_linear_536_103123)" fill-opacity="0.13"/>
<path d="M103.188 220.258V109.736C103.188 109.659 103.271 109.611 103.338 109.65L198.317 164.911C198.384 164.949 198.384 165.045 198.317 165.084L103.338 220.344C103.271 220.383 103.188 220.335 103.188 220.258Z" stroke="#B6B6B6" stroke-opacity="0.33" stroke-width="0.5"/>
<path d="M198.461 276.272V165.175C198.461 165.098 198.545 165.05 198.612 165.089L293.016 220.926C293.081 220.964 293.081 221.059 293.015 221.098L198.611 276.359C198.545 276.398 198.461 276.35 198.461 276.272Z" fill="#131313"/>
<path d="M198.461 276.272V165.175C198.461 165.098 198.545 165.05 198.612 165.089L293.016 220.926C293.081 220.964 293.081 221.059 293.015 221.098L198.611 276.359C198.545 276.398 198.461 276.35 198.461 276.272Z" fill="url(#paint2_linear_536_103123)" fill-opacity="0.13"/>
<path d="M198.461 276.272V165.175C198.461 165.098 198.545 165.05 198.612 165.089L293.016 220.926C293.081 220.964 293.081 221.059 293.015 221.098L198.611 276.359C198.545 276.398 198.461 276.35 198.461 276.272Z" stroke="#B6B6B6" stroke-opacity="0.33" stroke-width="0.5"/>
<path d="M198.461 276.273V165.175C198.461 165.097 198.377 165.049 198.31 165.089L103.33 220.926C103.264 220.964 103.264 221.06 103.33 221.098L198.311 276.359C198.377 276.398 198.461 276.35 198.461 276.273Z" fill="#131313"/>
<path d="M198.461 276.273V165.175C198.461 165.097 198.377 165.049 198.31 165.089L103.33 220.926C103.264 220.964 103.264 221.06 103.33 221.098L198.311 276.359C198.377 276.398 198.461 276.35 198.461 276.273Z" fill="url(#paint3_linear_536_103123)" fill-opacity="0.13"/>
<path d="M198.461 276.273V165.175C198.461 165.097 198.377 165.049 198.31 165.089L103.33 220.926C103.264 220.964 103.264 221.06 103.33 221.098L198.311 276.359C198.377 276.398 198.461 276.35 198.461 276.273Z" stroke="#439588" stroke-width="0.5"/>
<path d="M440.995 176.547C441.457 178.395 441.188 201.954 440.995 213.503L485.461 239.488" stroke="#48D9C2" stroke-width="0.5"/>
<path d="M59.8828 36.2344V197.342L2.71576 229.101" stroke="#439588" stroke-width="0.5"/>
<path d="M64.4981 255.078L155.734 307.048V395.397" stroke="#B6B6B6" stroke-opacity="0.33" stroke-width="0.5"/>
<path d="M47.173 300.703L107.805 334.772V366.532" stroke="#B6B6B6" stroke-opacity="0.33" stroke-width="0.5"/>
<rect width="4.85779" height="4.85779" transform="matrix(-1 0 0 1 263.539 27.9375)" fill="#318074"/>
<rect width="4.85779" height="4.85779" transform="matrix(-1 0 0 1 306.047 0)" fill="#318074"/>
<rect width="4.85779" height="4.85779" transform="matrix(-1 0 0 1 61.9375 32.7891)" fill="#318074"/>
<rect width="4.85779" height="4.85779" transform="matrix(-1 0 0 1 66.7969 252.609)" fill="#318074"/>
<rect width="4.85779" height="4.85779" transform="matrix(-1 0 0 1 4.85938 227.102)" fill="#318074"/>
<rect width="4.85779" height="4.85779" transform="matrix(-1 0 0 1 110.516 364.336)" fill="#318074"/>
<rect width="3.64334" height="3.64334" transform="matrix(-1 0 0 1 200.391 340.047)" fill="#318074"/>
<path d="M390.182 362.836L431.758 389.398" stroke="#B6B6B6" stroke-opacity="0.33" stroke-width="0.5"/>
<rect width="3.64334" height="3.64334" transform="matrix(-1 0 0 1 392.266 360.688)" fill="#318074"/>
<rect width="4.85779" height="4.85779" transform="matrix(-1 0 0 1 487 237.422)" fill="#318074"/>
<rect width="4.85779" height="4.85779" transform="matrix(-1 0 0 1 478.492 27.3281)" fill="#318074"/>
<defs>
<linearGradient id="paint0_linear_536_103123" x1="253.201" y1="221.009" x2="253.201" y2="109.563" gradientUnits="userSpaceOnUse">
<stop stop-color="#1CEDCC"/>
<stop offset="1" stop-color="#343434" stop-opacity="0"/>
</linearGradient>
<linearGradient id="paint1_linear_536_103123" x1="143.402" y1="220.432" x2="143.402" y2="109.563" gradientUnits="userSpaceOnUse">
<stop stop-color="#1CEDCC"/>
<stop offset="1" stop-color="#343434" stop-opacity="0"/>
</linearGradient>
<linearGradient id="paint2_linear_536_103123" x1="238.431" y1="276.447" x2="238.431" y2="165" gradientUnits="userSpaceOnUse">
<stop stop-color="#1CEDCC"/>
<stop offset="1" stop-color="#343434" stop-opacity="0"/>
</linearGradient>
<linearGradient id="paint3_linear_536_103123" x1="158.247" y1="276.447" x2="158.247" y2="165" gradientUnits="userSpaceOnUse">
<stop stop-color="#1CEDCC"/>
<stop offset="1" stop-color="#343434" stop-opacity="0"/>
</linearGradient>
</defs>
</svg>
